<?xml version="1.0" standalone="no"?>
<!DOCTYPE svg PUBLIC "-//W3C//DTD SVG 20010904//EN"
 "http://www.w3.org/TR/2001/REC-SVG-20010904/DTD/svg10.dtd">
<svg version="1.0" xmlns="http://www.w3.org/2000/svg"
 width="260.000000pt" height="240.000000pt" viewBox="0 0 260.000000 240.000000"
 preserveAspectRatio="xMidYMid meet">

<g transform="translate(0.000000,240.000000) scale(0.100000,-0.100000)"
fill="#000000" stroke="none">
<path d="M1150 2393 c-245 -26 -493 -114 -690 -246 -99 -66 -244 -213 -308
-311 -247 -380 -187 -841 153 -1171 50 -49 124 -110 163 -135 81 -51 82 -55
57 -175 -20 -94 -56 -164 -110 -214 l-45 -41 39 0 c56 0 176 25 242 49 31 12
80 39 110 61 30 22 80 57 111 79 l57 39 65 -14 c242 -51 557 -31 802 51 496
165 824 580 801 1015 -13 244 -106 443 -296 630 -212 209 -465 328 -800 374
-102 15 -262 19 -351 9z m288 -123 c445 -47 806 -270 962 -595 225 -468 -58
-1000 -636 -1193 -150 -50 -227 -63 -411 -69 -174 -6 -278 3 -395 33 l-58 15
-112 -85 c-62 -47 -114 -84 -115 -82 -1 1 -3 59 -4 129 l-1 127 -31 17 c-77
39 -188 123 -262 197 -301 302 -336 728 -87 1056 240 317 701 497 1150 450z"/>
</g>
</svg>
