<?xml version="1.0" standalone="no"?>
<!DOCTYPE svg PUBLIC "-//W3C//DTD SVG 20010904//EN"
 "http://www.w3.org/TR/2001/REC-SVG-20010904/DTD/svg10.dtd">
<svg version="1.0" xmlns="http://www.w3.org/2000/svg"
 width="250.000000pt" height="250.000000pt" viewBox="0 0 250.000000 250.000000"
 preserveAspectRatio="xMidYMid meet">

<g transform="translate(0.000000,250.000000) scale(0.100000,-0.100000)"
fill="#000000" stroke="none">
<path d="M1143 2076 c-140 -46 -260 -181 -280 -318 -32 -212 113 -411 329
-451 157 -29 334 66 410 221 31 63 33 73 33 172 0 100 -2 108 -34 167 -42 78
-123 156 -198 190 -70 32 -193 41 -260 19z m204 -101 c68 -20 143 -88 172
-155 41 -95 27 -224 -32 -302 -85 -111 -232 -146 -364 -88 -58 25 -96 60 -131
119 -21 36 -27 61 -30 131 -5 110 18 170 90 235 79 71 186 92 295 60z"/>
<path d="M1135 1175 c-92 -17 -146 -38 -225 -84 -192 -115 -330 -343 -330
-548 0 -51 3 -64 19 -73 13 -6 236 -10 653 -10 516 0 638 3 653 13 27 20 16
156 -20 257 -86 235 -282 402 -525 446 -91 16 -134 16 -225 -1z m303 -121
c181 -61 319 -207 366 -390 9 -34 16 -71 16 -83 l0 -21 -570 0 -570 0 0 21 c0
88 74 248 153 328 159 163 388 218 605 145z"/>
</g>
</svg>
