<?xml version="1.0" standalone="no"?>
<!DOCTYPE svg PUBLIC "-//W3C//DTD SVG 20010904//EN"
 "http://www.w3.org/TR/2001/REC-SVG-20010904/DTD/svg10.dtd">
<svg version="1.0" xmlns="http://www.w3.org/2000/svg"
 width="250.000000pt" height="250.000000pt" viewBox="0 0 250.000000 250.000000"
 preserveAspectRatio="xMidYMid meet">

<g transform="translate(0.000000,250.000000) scale(0.100000,-0.100000)"
fill="#000000" stroke="none">
<path d="M1594 2339 c-53 -10 -143 -55 -151 -75 -3 -9 4 -36 15 -59 l21 -44
53 29 c108 60 228 33 321 -70 135 -150 136 -460 2 -618 -43 -51 -100 -82 -168
-93 -34 -6 -62 -11 -63 -12 -1 -1 -4 -27 -5 -57 l-4 -55 57 1 c152 3 309 167
359 374 19 78 17 241 -4 319 -66 243 -249 396 -433 360z"/>
<path d="M712 2309 c-196 -98 -308 -397 -243 -651 40 -154 137 -290 246 -344
54 -26 159 -44 167 -28 2 5 3 32 0 61 l-4 51 -50 7 c-94 13 -153 50 -209 131
-89 130 -102 345 -30 501 76 161 232 226 374 155 l55 -28 22 47 c13 26 19 52
15 59 -4 7 -35 25 -69 41 -51 24 -74 29 -137 29 -65 0 -85 -5 -137 -31z"/>
<path d="M1147 2195 c-112 -41 -204 -148 -263 -305 -25 -68 -28 -88 -29 -205
0 -117 3 -138 28 -210 50 -147 131 -245 247 -299 231 -108 492 125 516 459 16
230 -97 459 -269 545 -49 25 -72 30 -126 29 -36 0 -83 -7 -104 -14z m218 -133
c59 -30 110 -88 147 -167 30 -64 33 -79 36 -188 4 -129 -5 -182 -44 -262 -31
-61 -75 -108 -134 -143 -60 -36 -173 -38 -235 -5 -171 90 -242 358 -156 585
28 73 101 154 166 185 62 30 157 28 220 -5z"/>
<path d="M510 1343 c-220 -148 -385 -471 -416 -813 -8 -97 8 -121 102 -149 68
-22 233 -55 239 -49 2 2 5 28 7 58 l3 55 -35 8 c-19 5 -78 18 -130 31 l-95 22
3 34 c9 112 61 299 110 395 62 125 162 242 256 301 51 31 53 42 24 113 l-13
31 -55 -37z"/>
<path d="M1912 1331 c-18 -57 -16 -64 31 -93 183 -119 332 -392 363 -667 8
-72 16 -66 -148 -101 l-108 -23 0 -36 c0 -20 3 -47 7 -60 5 -21 10 -22 47 -17
23 4 88 18 146 32 161 40 173 60 142 247 -46 274 -148 492 -302 646 -56 56
-131 111 -153 111 -7 0 -19 -17 -25 -39z"/>
<path d="M920 1219 c-100 -68 -213 -199 -283 -329 -69 -126 -129 -336 -142
-495 -5 -59 -3 -75 13 -100 17 -27 31 -34 128 -58 358 -91 758 -100 1119 -25
173 35 217 52 239 92 16 31 17 42 6 122 -46 347 -195 633 -409 783 l-61 42 -9
-24 c-5 -14 -13 -40 -16 -60 -6 -32 -4 -36 32 -58 169 -103 307 -336 358 -602
26 -137 29 -131 -72 -156 -369 -90 -777 -90 -1147 0 l-89 22 7 66 c10 106 52
248 111 367 42 86 69 127 125 187 39 42 94 91 122 109 54 35 56 45 26 116
l-13 31 -45 -30z"/>
</g>
</svg>
